<?xml version="1.0" encoding="utf-8"?>
<!-- Generator: Adobe Illustrator 24.0.1, SVG Export Plug-In . SVG Version: 6.00 Build 0)  -->
<svg version="1.1" id="Capa_1" xmlns="http://www.w3.org/2000/svg" xmlns:xlink="http://www.w3.org/1999/xlink" x="0px" y="0px"
	 viewBox="0 0 512 512" style="enable-background:new 0 0 512 512;" xml:space="preserve">
<style type="text/css">
	.st0{fill:#33A038;}
</style>
<g>
	<g>
		<path class="st0" d="M504.5,246.6c-1.1-1.4-28.1-34.9-71.9-68.7c-25.8-20-52.2-35.9-78.4-47.4c-31.8-14-63.5-21.3-94.1-21.9
			c-1.4,0-2.7-0.1-4.1-0.1c-1.4,0-2.7,0-4.1,0.1c-30.6,0.6-62.3,8-94.1,21.9c-26.2,11.5-52.6,27.4-78.4,47.4
			c-43.8,33.8-70.8,67.3-71.9,68.7L0,256l7.5,9.4c1.1,1.4,28.1,34.9,71.9,68.7c25.8,20,52.2,35.9,78.4,47.4
			c31.8,14,63.5,21.3,94.1,21.9c1.4,0,2.7,0.1,4.1,0.1s2.7,0,4.1-0.1c30.6-0.6,62.3-8,94.1-21.9c26.2-11.5,52.6-27.4,78.4-47.4
			c43.8-33.8,70.8-67.3,71.9-68.7l7.5-9.4L504.5,246.6z M130.2,333c-11.8-7.3-22.5-14.9-31.9-22.2C70.6,289.5,49.8,267.9,39,256
			c10.7-11.9,31.6-33.5,59.3-54.8c9.4-7.3,20.1-14.9,31.9-22.2c-13.8,22.4-21.7,48.8-21.7,77S116.5,310.6,130.2,333z M259.6,373.4
			c-1.2,0-2.4,0.1-3.6,0.1s-2.4,0-3.6-0.1c-63.1-1.9-113.9-53.9-113.9-117.4s50.8-115.5,113.9-117.4c1.2,0,2.4-0.1,3.6-0.1
			c1.2,0,2.4,0,3.6,0.1c63.1,1.9,113.9,53.9,113.9,117.4S322.7,371.5,259.6,373.4z M413.7,310.8c-9.4,7.3-20.1,14.9-31.9,22.2
			c13.8-22.4,21.7-48.8,21.7-77c0-28.2-8-54.6-21.7-77c11.8,7.3,22.5,14.9,31.9,22.2c27.7,21.3,48.5,42.9,59.3,54.8
			C462.2,267.9,441.4,289.5,413.7,310.8z"/>
	</g>
</g>
<g>
	<g>
		<path class="st0" d="M256,170.7c-47,0-85.3,38.3-85.3,85.3s38.3,85.3,85.3,85.3s85.3-38.3,85.3-85.3S303,170.7,256,170.7z
			 M256,311.3c-30.5,0-55.3-24.8-55.3-55.3s24.8-55.3,55.3-55.3s55.3,24.8,55.3,55.3S286.5,311.3,256,311.3z"/>
	</g>
</g>
</svg>
