<?xml version="1.0" encoding="utf-8"?>
<!-- Generator: Adobe Illustrator 24.0.1, SVG Export Plug-In . SVG Version: 6.00 Build 0)  -->
<svg version="1.1" id="Capa_1" xmlns="http://www.w3.org/2000/svg" xmlns:xlink="http://www.w3.org/1999/xlink" x="0px" y="0px"
	 viewBox="0 0 512 512" style="enable-background:new 0 0 512 512;" xml:space="preserve">
<style type="text/css">
	.st0{fill:#33A038;}
</style>
<path class="st0" d="M177,222H335c8.6,0,16.5-3.9,21.8-10.6s7.1-15.4,5-23.8l-11.8-47.3c-5.7-22.7-22.6-40.1-44-46.8
	c6.3-9.5,10-21,10-33.2C316.2,27,289.2,0,256,0s-60.2,27-60.2,60.2c0,12.3,3.7,23.7,10,33.2c-21.4,6.8-38.3,24.1-44,46.8l-11.8,47.3
	c-2.1,8.3-0.2,17,5.1,23.8S168.4,222,177,222L177,222z M256,30c16.6,0,30.2,13.5,30.2,30.2c0,16.6-13.5,30.2-30.2,30.2
	s-30.2-13.5-30.2-30.2C225.8,43.5,239.4,30,256,30z M191,147.5c4-16,18.3-27.2,34.8-27.2h60.5c16.5,0,30.8,11.2,34.8,27.2l11.1,44.5
	H179.9L191,147.5z"/>
<path class="st0" d="M511.6,152.2c-0.1-22.8-17.2-42.3-39.8-45.3c-13-1.7-26.2,2.3-36.1,11c-9.9,8.7-15.6,21.2-15.6,34.4l0,72.9
	c-0.9-0.1-1.9-0.1-2.8-0.1c-11.8,0-23,4.6-31.4,13l-39.3,39.3c-0.4,0.4-0.9,0.6-1.5,0.5c-0.3,0-0.5-0.1-0.8-0.1l-17.6-1.1
	c-14.6-1.5-29,3.5-39.4,13.9L263,315c-2.5,2.5-4.9,5.2-7,8c-2.1-2.8-4.4-5.5-7-8l-24.3-24.3c-10.4-10.4-24.8-15.5-39.4-13.9
	l-17.6,1.1c-0.3,0-0.5,0-0.8,0.1c-0.5,0.1-1.1-0.1-1.5-0.5l-39.3-39.3c-8.4-8.4-19.5-13-31.4-13c-1,0-1.9,0-2.8,0.1l0-72.9
	c0-13.2-5.7-25.7-15.6-34.4c-9.9-8.7-23-12.7-36.1-11c-22.7,3-39.8,22.4-39.8,45.3L0,317.5c0,17.2,6.9,34.1,19.1,46.3l95.9,95.9V487
	c0,13.8,11.2,25,25,25h106c3.6,0,6.9-0.8,10-2.1c3.1,1.3,6.4,2.1,10,2.1h106c13.8,0,25-11.2,25-25v-27.3l95.9-95.9
	c12.2-12.2,19.2-29.1,19.1-46.3L511.6,152.2z M471.7,342.6L371.4,442.9c-2.8,2.8-4.4,6.6-4.4,10.6V482h-96V368.1
	c0-12,4.7-23.3,13.2-31.8l24.3-24.3c4-4,9.6-6,15.2-5.3c0.3,0,0.5,0.1,0.8,0.1l17.7,1.1c9.5,1,18.8-2.4,25.6-9.1l39.3-39.3
	c5.6-5.6,14.7-5.6,20.3,0c5.6,5.6,5.6,14.7,0,20.3l-56,56c-5.9,5.9-5.9,15.4,0,21.2c5.9,5.9,15.4,5.9,21.2,0l56-56
	c8.4-8.4,13-19.5,13-31.4c0-11.1-4.1-21.6-11.5-29.8l0-87.4c0-4.6,1.9-8.8,5.4-11.8c3.5-3,7.9-4.4,12.4-3.8
	c7.8,1,13.7,7.7,13.7,15.6l0.4,165.3C482,326.9,478.3,336,471.7,342.6L471.7,342.6z M40.3,342.6c-6.6-6.6-10.4-15.7-10.3-25
	l0.4-165.3c0-7.9,5.9-14.6,13.7-15.6c4.6-0.6,9,0.7,12.4,3.8c3.5,3,5.4,7.2,5.4,11.8l0,87.4c-7.4,8.2-11.5,18.7-11.5,29.8
	c0,11.8,4.6,23,13,31.4l56,56c5.9,5.9,15.4,5.9,21.2,0s5.9-15.4,0-21.2l-56-56c-5.6-5.6-5.6-14.7,0-20.3c5.6-5.6,14.7-5.6,20.3,0
	l39.3,39.3c6.8,6.8,16.1,10.1,25.6,9.1l17.7-1.1c0.3,0,0.5,0,0.8-0.1c5.6-0.6,11.2,1.3,15.2,5.3l24.3,24.3
	c8.5,8.5,13.2,19.8,13.2,31.8V482h-96v-28.5c0-4-1.6-7.8-4.4-10.6L40.3,342.6z"/>
</svg>
